<svg xmlns="http://www.w3.org/2000/svg" xmlns:xlink="http://www.w3.org/1999/xlink" width="2000" zoomAndPan="magnify" viewBox="0 0 1500 1499.999933" height="2000" preserveAspectRatio="xMidYMid meet" version="1.0"><defs><g/><clipPath id="1b0f800ba1"><rect x="0" width="1089" y="0" height="1442"/></clipPath><clipPath id="833bf3becd"><rect x="0" width="381" y="0" height="587"/></clipPath></defs><g transform="matrix(1, 0, 0, 1, 29, 58)"><g clip-path="url(#1b0f800ba1)"><g fill="#ffffff" fill-opacity="1"><g transform="translate(1.645226, 1202.444327)"><g><path d="M 299.609375 0 L 438.484375 0 L 349.765625 -457.78125 C 376.335938 -475.78125 395.835938 -504.28125 408.265625 -543.28125 C 420.703125 -582.289062 426.921875 -625.367188 426.921875 -672.515625 C 426.921875 -761.671875 408.273438 -829.394531 370.984375 -875.6875 C 333.691406 -921.976562 273.46875 -945.125 190.3125 -945.125 L 51.4375 -945.125 L 51.4375 0 L 190.3125 0 L 190.3125 -398.625 L 227.609375 -398.625 Z M 190.3125 -527.21875 L 190.3125 -807.546875 C 199.738281 -807.546875 210.453125 -806.6875 222.453125 -804.96875 C 234.460938 -803.25 245.609375 -797.675781 255.890625 -788.25 C 266.179688 -779.675781 274.96875 -765.742188 282.25 -746.453125 C 289.539062 -727.171875 293.1875 -700.8125 293.1875 -667.375 C 293.1875 -633.945312 289.539062 -608.015625 282.25 -589.578125 C 274.96875 -571.148438 266.179688 -557.222656 255.890625 -547.796875 C 245.609375 -539.222656 234.460938 -533.648438 222.453125 -531.078125 C 210.453125 -528.503906 199.738281 -527.21875 190.3125 -527.21875 Z M 190.3125 -527.21875 "/></g></g></g><g fill="#ffffff" fill-opacity="1"><g transform="translate(465.853303, 1202.444327)"><g><path d="M 281.609375 0 L 340.765625 0 L 429.484375 -594.078125 L 434.625 -633.9375 L 442.34375 -633.9375 L 442.34375 0 L 570.9375 0 L 570.9375 -945.125 L 401.203125 -945.125 L 318.90625 -513.078125 L 312.46875 -462.921875 L 309.90625 -462.921875 L 303.46875 -513.078125 L 221.171875 -945.125 L 51.4375 -945.125 L 51.4375 0 L 180.03125 0 L 180.03125 -633.9375 L 187.734375 -633.9375 L 192.890625 -594.078125 Z M 281.609375 0 "/></g></g></g></g></g><g transform="matrix(1, 0, 0, 1, 1119, 678)"><g clip-path="url(#833bf3becd)"><g fill="#498de7" fill-opacity="1"><g transform="translate(30.140919, 443.297677)"><g><path d="M 341.140625 19.390625 L 341.140625 136.9375 L -26.046875 136.9375 L -26.046875 19.390625 Z M 341.140625 19.390625 "/></g></g></g></g></g></svg>